<?xml version="1.0" encoding="UTF-8"?>
<svg width="32" height="32" viewBox="0 0 32 32" fill="none" xmlns="http://www.w3.org/2000/svg">
  <defs>
    <!-- Modern gradients matching logo -->
    <linearGradient id="box-blue-favicon" x1="0" y1="0" x2="1" y2="1">
      <stop offset="0%" stop-color="#3B82F6"/>
      <stop offset="100%" stop-color="#1D4ED8"/>
    </linearGradient>
    <linearGradient id="box-green-favicon" x1="0" y1="0" x2="1" y2="1">
      <stop offset="0%" stop-color="#10B981"/>
      <stop offset="100%" stop-color="#059669"/>
    </linearGradient>
    <!-- Enhanced glow effects -->
    <filter id="box-glow-favicon" x="-20%" y="-20%" width="140%" height="140%">
      <feGaussianBlur in="SourceGraphic" stdDeviation="2" result="blur"/>
      <feComposite in="SourceGraphic" in2="blur" operator="over"/>
    </filter>
    <filter id="shadow-favicon" x="-20%" y="-20%" width="140%" height="140%">
      <feDropShadow dx="0" dy="2" stdDeviation="2" flood-color="#1D4ED8" flood-opacity="0.15"/>
    </filter>
  </defs>
  
  <!-- Modern 3D Box -->
  <g filter="url(#shadow-favicon)">
    <!-- Box face -->
    <polygon points="8,8 16,6 24,14 16,16" fill="url(#box-blue-favicon)" stroke="#3B82F6" stroke-width="1" filter="url(#box-glow-favicon)"/>
    <!-- Box side -->
    <polygon points="16,6 24,14 24,22 16,24" fill="url(#box-green-favicon)" stroke="#10B981" stroke-width="1"/>
    <!-- Box top -->
    <polygon points="8,8 16,6 24,14 16,16" fill="#1E40AF" opacity="0.2"/>
    
    <!-- Modern antenna -->
    <path d="M16,6 L16,2" stroke="#3B82F6" stroke-width="1.5" stroke-linecap="round"/>
    <circle cx="16" cy="2" r="2" fill="#3B82F6" filter="url(#box-glow-favicon)"/>
    
    <!-- Digital dots -->
    <g filter="url(#box-glow-favicon)">
      <circle cx="14" cy="12" r="1.5" fill="#3B82F6"/>
      <circle cx="18" cy="10" r="1.5" fill="#3B82F6"/>
      <circle cx="20" cy="14" r="1.5" fill="#3B82F6"/>
    </g>
  </g>
  
  <!-- Subtle shadow -->
  <ellipse cx="16" cy="26" rx="8" ry="2" fill="#1D4ED8" opacity="0.12"/>
  
  <!-- Subtle tech pattern -->
  <g opacity="0.1">
    <path d="M4,28 L8,28 M12,28 L16,28 M20,28 L24,28" stroke="#1D4ED8" stroke-width="0.5" stroke-dasharray="1 2"/>
  </g>
</svg> 